# xmcd CD database file
#
# Track frame offsets:
#	150
#	16472
#	28990
#	41686
#	57353
#	70582
#	86147
#	100820
#	113997
#	129275
#	144474
#	158214
#	170728
#	185510
#	199700
#	214638
#	228367
#	242842
#
# Disc length: 3434 seconds
#
# Revision: 0
# Processed by: cddbd v1.5.2PL0 Copyright (c) Steve Scherf et al.
# Submitted via: CDex 1.51
#
DISCID=fe0d6812
DTITLE=Glenn Miller - Masters of Music CD3
DYEAR=2005
DGENRE=Jazz
TTITLE0=Moonlight Serenade
TTITLE1=Don't Cry Cherie
TTITLE2=Hear My Song, Violetta
TTITLE3=Chattanooga Choo Choo
TTITLE4=I Haven't Time To Be A Millionaire
TTITLE5=Tuxedo Junction
TTITLE6=Let's Have Another Cup O' Coffee
TTITLE7=Five O'Clock Whistle
TTITLE8=She'll Always Remember
TTITLE9=Ida, Sweet As Apple Cider
TTITLE10=Missouri Waltz
TTITLE11=Angel
TTITLE12=Speaking Of Heaven
TTITLE13=It's Always You
TTITLE14=A Handful Of Stars
TTITLE15=Rhapsody In Blue
TTITLE16=Orange Blossom Lane
TTITLE17=Below The Equator
EXTD=YEAR: 2005
EXTT0=
EXTT1=
EXTT2=
EXTT3=
EXTT4=
EXTT5=
EXTT6=
EXTT7=
EXTT8=
EXTT9=
EXTT10=
EXTT11=
EXTT12=
EXTT13=
EXTT14=
EXTT15=
EXTT16=
EXTT17=
PLAYORDER=
